# Blender 5.1.2
# www.blender.org
mtllib model.mtl
o Cube.002
v -0.035000 -0.050000 0.012500
v -0.035000 0.050000 0.012500
v -0.035000 -0.050000 -0.012500
v -0.035000 0.050000 -0.012500
v 0.035000 -0.050000 0.012500
v 0.035000 0.050000 0.012500
v 0.035000 -0.050000 -0.012500
v 0.035000 0.050000 -0.012500
vn -1.0000 -0.0000 -0.0000
vn -0.0000 -0.0000 -1.0000
vn 1.0000 -0.0000 -0.0000
vn -0.0000 -0.0000 1.0000
vn -0.0000 -1.0000 -0.0000
vn -0.0000 1.0000 -0.0000
vt 0.790115 0.042113
vt 0.790115 0.484405
vt 0.679543 0.484405
vt 0.679543 0.042113
vt 0.811269 0.501713
vt 0.811269 0.969335
vt 0.483934 0.969335
vt 0.483934 0.501713
vt 0.964920 0.042459
vt 0.964920 0.484751
vt 0.854347 0.484751
vt 0.854347 0.042459
vt 0.417206 0.426149
vt 0.417206 0.976492
vt 0.031966 0.976492
vt 0.031966 0.426149
vt 0.456534 0.389369
vt 0.638959 0.389369
vt 0.638959 0.454521
vt 0.456534 0.454521
vt 0.418965 0.354358
vt 0.028465 0.354358
vt 0.028465 0.214894
vt 0.418965 0.214894
s 0
usemtl SIGARETTE
f 1/1/1 2/2/1 4/3/1 3/4/1
f 3/5/2 4/6/2 8/7/2 7/8/2
f 7/9/3 8/10/3 6/11/3 5/12/3
f 5/13/4 6/14/4 2/15/4 1/16/4
f 3/17/5 7/18/5 5/19/5 1/20/5
f 8/21/6 4/22/6 2/23/6 6/24/6
